<svg xmlns="http://www.w3.org/2000/svg" version="1" preserveAspectRatio="none" width="1024" height="1024"><path fill="#9B4E55" d="M528 800h-32v176h32V800m0-208h-32v176h32V592m0-192h-32v160h32V400m0-192h-32v160h32V208z"/><path fill="#72393E" d="M528 800v176l432-96V704l-432 96m272-304V336l-272 64v160l272-64m80 192V512l-352 80v176l352-80M720 320V160l-192 48v160l192-48z"/><path fill="#9B4E55" d="M512 176h16l192-48-208-80v128z"/><path fill="#D86D77" d="M432 299v53l64 16V208l-192-48v160l64 16v-53l64 16m64 677V800L64 704v176l432 96m0-416V400l-272-64v160l272 64m-352-48v176l352 80V592l-352-80m352-336h16V48l-208 80 192 48z"/></svg>
