<svg xmlns="http://www.w3.org/2000/svg" preserveAspectRatio="none" width="1086" height="248"><path fill="#D86D77" d="M127 98.9L65.4 84.5v35.9l61.6 14.3V99m0 89.7l-97.8-21.5v39.5L127 228v-39.5m3.7-140V20L83.5 38 127 48.7h3.7M47.3 124v39.4l79.7 18v-39.5L47.2 124M98 72.5l14.5 3.7V88l14.5 3.6V55.8L83.5 45V81L98 84.5v-12z"/><path fill="#9B4E55" d="M134.3 98.9H127v35.8h7.3V99m0 89.7H127v39.5h7.3v-39.5m-3.7-168.7v28.8h3.7l43.4-10.9-47-17.8M127 142v39.4h7.3v-39.5H127m0-86.1v35.9h7.3V55.8H127z"/><path fill="#72393E" d="M195.9 120.4V84.5l-61.7 14.4v35.8l61.7-14.3m36.3 86.2V167l-98 21.5v39.5l98-21.5M214 163.4V124l-79.8 18v39.4l79.8-18M177.7 81V45l-43.4 10.8v35.9l43.4-10.8z"/><path fill="#9B4E55" d="M492.4 79.6q13.8 0 21.4 6 7.7 6.1 7.7 16.5v.7h14.7v-.8q0-16.5-11.9-26.2-11.8-9.6-32-9.6-22.7 0-34.9 12.5-12.3 12.5-12.3 37.1v16.5q0 24.5 12.3 37t35 12.5q20.5 0 32.1-10.7 11.9-10.7 11.9-31.2v-18.2h-45.9v12.5h31.1v6.7q0 27.6-29.1 27.6-16.5 0-24.5-8.8-8.1-8.9-8.1-27.3v-15.8q0-19 8-28t24.5-9M757 67.8h-14.9v71.3q0 29.2-29.8 29.2T682.7 139V67.8h-14.9v72.3q0 19.6 11.8 30.4 11.9 10.8 33 10.8 21 0 32.8-10.8 11.8-10.8 11.8-30.4V67.8m-108.9 35v-.8q0-16.5-11.9-26.2-11.8-9.6-32-9.6-22.6 0-34.9 12.5Q557 91.2 557 115.8v16.5q0 24.5 12.4 37 12.3 12.5 35 12.5 20.5 0 32.1-10.7 11.9-10.7 11.9-31.2v-18.2h-45.9v12.5h31.1v6.7q0 27.6-29.1 27.6-16.5 0-24.5-8.8-8.1-8.9-8.1-27.3v-15.8q0-19 8-28t24.5-9q13.8 0 21.4 6 7.7 6.1 7.7 16.5v.7h14.7m205.9-26.6q-9.9-8.4-28.5-8.4h-49v112.5h14.9v-47.9H824l26.3 48h16.9l-27.9-49.5q12.1-2.7 18.4-10.7 6.3-7.9 6.3-20.1 0-15.6-9.9-24m-29 5q12.1 0 18.1 4.6 6 4.7 6 14.4 0 10-5.7 14.8-5.6 4.6-17.5 4.6h-34.5V81.2H825M386.4 81V67.7h-79V81h61.9l-64 86v13.2h81.8V167h-64.5l63.8-86m37.8-13.2h-14.8v112.5h14.8V67.8m512 0h-12.6l-47 112.5h15.6l10.1-25.4h55l10.4 25.4h15.6L936.2 67.8m16.1 74.6h-45l22.6-56.3 22.5 56.3m104.4-61.3V67.8h-87.4v13.3h36.4v99.3h14.7V81h36.3z"/></svg>
